<svg width="1666" height="1666" viewBox="0 0 1666 1666" fill="none" xmlns="http://www.w3.org/2000/svg">
<rect width="1666" height="1666" fill="#22B573"/>
<g opacity="0.35" clip-path="url(#clip0_102_986)">
<path d="M1156.78 536.91C1075.25 540.312 989.412 563.218 935.182 624.18C868.088 699.619 866.061 811.274 827.23 904.469C779.215 1019.72 668.667 1106.6 545.337 1126.02C422.007 1145.44 290.104 1096.73 208.998 1001.81C138.688 919.536 104.83 806.662 19.3699 740.25C-92.7089 653.156 -255.935 675.741 -385.584 733.487C-515.243 791.232 -631.882 879.392 -768.531 917.789C-905.17 956.186 -1078.32 925.814 -1143.23 799.588C-1204.03 681.325 -1145.48 539.319 -1086.76 420.012C-1028.05 300.705 -968.397 159.567 -1027.45 40.415C-1034.75 25.6787 -1043.32 12.2867 -1052.96 0.0219727H-943.413C-929.183 17.6952 -913.433 34.417 -898.211 51.1595C-854.84 98.8638 -813.795 149.95 -788.076 209.06C-762.358 268.171 -753.164 336.63 -774.416 397.489C-809.555 498.109 -915.946 555.131 -972.834 645.255C-984.768 664.159 -994.726 685.989 -991.769 708.151C-986.071 750.839 -937.384 772.856 -894.726 778.781C-639.007 814.304 -411.592 564.883 -154.549 588.988C-102.512 593.869 -43.7014 608.326 -2.65686 575.958C33.734 547.261 38.2015 495.183 50.2284 450.426C70.6007 374.676 121.459 307.602 188.905 267.551C250.27 231.108 325.068 215.658 376.123 165.803C420.435 122.535 439.081 61.1078 453.465 0.0219727H581.945C581.728 1.39736 581.501 2.77275 581.314 4.15848C571.708 73.6828 595.565 146.434 575.586 213.714C555.027 282.959 491.987 331.367 426.516 361.884C361.046 392.401 289.815 410.064 226.464 444.769C163.114 479.474 105.833 537.385 99.0598 609.298C92.7102 676.796 131.904 740.436 178.222 789.95C224.034 838.926 283.228 881.719 350.26 883.57C437.488 885.979 510.239 820.229 569.319 756.031C622.132 698.647 672.411 638.926 719.97 577.116C763.104 521.056 804.893 462.37 861.604 420.095C921.511 375.451 994.428 351.956 1067.09 334.583C1218.5 298.378 1379.08 285.896 1529.05 327.695C1573.38 340.053 1620.92 356.734 1666 358.926V632.804C1592.03 627.799 1515.78 601.212 1443.57 579.722C1350.5 552.018 1253.8 532.856 1156.78 536.91Z" fill="url(#paint0_linear_102_986)"/>
<path d="M1067.09 334.583C994.417 351.957 921.511 375.452 861.604 420.095C804.882 462.36 763.104 521.057 719.97 577.117C672.411 638.927 622.132 698.637 569.319 756.031C510.229 820.24 437.478 885.98 350.26 883.57C283.228 881.719 224.034 838.927 178.222 789.951C131.914 740.447 92.7102 676.796 99.0598 609.299C105.833 537.386 163.114 479.475 226.464 444.769C289.815 410.064 361.046 392.401 426.516 361.884C491.987 331.367 555.027 282.96 575.586 213.714C595.565 146.434 571.708 73.6833 581.315 4.15897C581.501 2.77324 581.728 1.39785 581.945 0.0224609H849.981C800.663 48.13 762.256 111.295 730.043 172.939C675.265 277.768 622.783 392.381 522.462 455.028C475.472 484.376 421.335 499.857 371.066 523.146C334.086 540.281 294.375 569.982 296.723 610.674C298.46 640.757 324.965 665.307 354.262 672.35C383.558 679.392 414.551 672.008 442.235 660.116C587.033 597.913 651.397 431.171 762.09 318.999C846.268 233.704 961.18 179.402 1080.53 168.513C1187.53 158.761 1294.71 182.773 1397.81 212.991C1471.19 234.5 1548.38 259.464 1622.59 240.964C1637.75 237.179 1652.46 230.715 1666 222.215V358.927C1620.92 356.734 1573.38 340.054 1529.05 327.696C1379.08 285.907 1218.5 298.389 1067.09 334.583Z" fill="url(#paint1_linear_102_986)"/>
<path d="M1397.81 212.991C1294.71 182.763 1187.53 158.751 1080.53 168.513C961.18 179.392 846.268 233.704 762.09 318.999C651.397 431.16 587.023 597.903 442.235 660.116C414.551 672.009 383.558 679.403 354.262 672.35C324.965 665.307 298.46 640.757 296.723 610.674C294.375 569.992 334.086 540.281 371.066 523.146C421.335 499.857 475.471 484.377 522.462 455.028C622.783 392.381 675.255 277.758 730.043 172.939C762.256 111.295 800.663 48.1301 849.981 0.0224609H1666V222.215C1652.45 230.705 1637.75 237.179 1622.59 240.964C1548.39 259.464 1471.19 234.5 1397.81 212.991Z" fill="url(#paint2_linear_102_986)"/>
<path d="M-196.846 200.445C-216.96 226.484 -228.976 257.704 -241.437 288.159C-258.014 328.676 -276.443 369.576 -306.743 401.169C-337.042 432.761 -381.737 453.785 -424.654 445.14C-467.57 436.494 -503.113 391.396 -491.799 349.111C-479.897 304.623 -423.909 272.627 -434.137 227.725C-442.151 192.534 -485.419 179.752 -508.894 152.337C-539.535 116.536 -530.838 59.6792 -503.485 21.3131C-498.087 13.7433 -492.13 6.69054 -485.76 0.0307617H-261.551C-265.046 18.0246 -270.507 35.553 -278.583 52.3369C-301.944 100.9 -346.401 141.396 -351.241 195.077C-353.878 224.374 -338.935 258.511 -310.093 264.281C-278.108 270.682 -251.086 240.372 -236.039 211.437C-211.272 163.805 -197.756 110.982 -173.257 63.2056C-161.499 40.279 -146.256 18.0659 -127.756 0.0307617H143.279C142.193 1.59229 141.076 3.14349 139.928 4.67399C60.8483 110.196 -116.236 96.0701 -196.846 200.445Z" fill="url(#paint3_linear_102_986)"/>
<path d="M-64.4154 299.669C-92.7505 348.025 -109.638 408.832 -158.986 435.388C-187.321 450.642 -220.9 451.076 -252.844 455.016C-408.252 474.168 -536.877 580.011 -678.801 646.154C-705.636 658.656 -745.109 665.843 -758.325 639.349C-763.661 628.656 -762.11 615.895 -759.411 604.261C-749.742 562.596 -726.536 524.199 -694.137 496.278C-642.182 451.51 -559.721 418.801 -561.8 350.249C-562.637 322.524 -578.883 297.684 -596.867 276.567C-647.963 216.567 -722.068 163.795 -726.65 85.119C-728.387 55.3361 -719.37 26.7942 -705.605 0.0103435H-485.75C-492.12 6.67012 -498.077 13.7229 -503.475 21.2927C-530.827 59.6691 -539.535 116.515 -508.883 152.317C-485.419 179.731 -442.141 192.523 -434.126 227.704C-423.899 272.606 -479.886 304.602 -491.789 349.09C-503.102 391.376 -467.549 436.474 -424.643 445.119C-381.727 453.765 -337.042 432.73 -306.732 401.148C-276.422 369.566 -258.004 328.656 -241.427 288.139C-228.966 257.684 -216.949 226.474 -196.835 200.424C-116.225 96.0497 60.8589 110.176 139.949 4.64323C141.097 3.11272 142.203 1.56153 143.299 0H314.706C206.95 113.03 17.2703 160.279 -64.4154 299.669Z" fill="url(#paint4_linear_102_986)"/>
<path d="M188.894 267.56C121.448 307.612 70.5894 374.696 50.2171 450.435C38.1799 495.192 33.7125 547.271 -2.66815 575.968C-43.7023 608.336 -102.513 593.879 -154.561 588.998C-411.603 564.882 -639.018 814.314 -894.737 778.791C-937.395 772.866 -986.082 750.849 -991.78 708.16C-994.737 685.999 -984.779 664.169 -972.845 645.265C-915.958 555.141 -809.566 498.119 -774.427 397.498C-753.175 336.63 -762.379 268.191 -788.088 209.07C-813.796 149.949 -854.851 98.8633 -898.222 51.1694C-913.445 34.4269 -929.194 17.705 -943.424 0.0318239H-705.616C-719.37 26.8157 -728.387 55.3576 -726.661 85.1405C-722.069 163.817 -647.974 216.588 -596.878 276.588C-578.894 297.705 -562.648 322.545 -561.81 350.27C-559.732 418.822 -642.193 451.521 -694.148 496.299C-726.547 524.22 -749.763 562.617 -759.422 604.282C-762.121 615.916 -763.662 628.677 -758.336 639.37C-745.12 665.854 -705.647 658.677 -678.811 646.175C-536.888 580.032 -408.263 474.189 -252.855 455.037C-220.921 451.097 -187.332 450.663 -158.997 435.41C-109.649 408.843 -92.7613 348.036 -64.4262 299.691C17.2699 160.28 206.949 113.031 314.705 0.0214844H453.465C439.08 61.1074 420.435 122.534 376.122 165.802C325.057 215.668 250.259 231.107 188.894 267.56Z" fill="url(#paint5_linear_102_986)"/>
<path d="M1432.94 720.643C1396.74 727.862 1360.96 741.326 1333.05 765.483C1284.58 807.438 1267.22 873.705 1243.4 933.229C1158.51 1145.35 957.106 1306.43 731.511 1342.65C505.916 1378.87 264.22 1288.91 117.198 1114C68.3152 1055.86 27.3844 987.51 -38.3033 949.351C-107.176 909.341 -192.905 909.527 -270.589 927.169C-348.262 944.811 -421.323 978.338 -497.322 1002.23C-625.212 1042.42 -761.727 1054.96 -894.798 1038.71C-1016.43 1023.86 -1142.32 980.096 -1216.95 882.919C-1242.95 849.061 -1261.22 810.799 -1277.13 771.129V0.0224609H-1052.97C-1043.32 12.2872 -1034.76 25.6791 -1027.46 40.4155C-968.407 159.568 -1028.05 300.695 -1086.77 420.012C-1145.5 539.33 -1204.04 681.326 -1143.24 799.589C-1078.34 925.814 -905.181 956.187 -768.542 917.789C-631.903 879.392 -515.253 791.233 -385.594 733.487C-255.935 675.742 -92.7089 653.156 19.3595 740.25C104.82 806.662 138.677 919.537 208.987 1001.81C290.094 1096.73 421.997 1145.43 545.327 1126.02C668.657 1106.6 779.205 1019.72 827.22 904.47C866.051 811.285 868.078 699.62 935.172 624.18C989.391 563.218 1075.24 540.312 1156.76 536.91C1253.79 532.856 1350.49 552.019 1443.56 579.723C1515.78 601.212 1592.03 627.789 1666 632.805V732.712C1588.37 716.352 1510 705.266 1432.94 720.643Z" fill="url(#paint6_linear_102_986)"/>
<path d="M-486.887 1133.62C-579.524 1160.56 -666.732 1203.67 -758.842 1232.37C-926.888 1284.74 -1113.59 1285.92 -1277.12 1223.2V1455.54C-1222.08 1462.29 -1166.82 1464.42 -1111.53 1458.85C-967.601 1444.39 -834.654 1379.07 -699.049 1328.7C-563.444 1278.32 -412.802 1242.39 -275.501 1287.92C-246.008 1297.71 -217.073 1311.57 -195.377 1333.82C-171.82 1357.95 -158.541 1390 -145.222 1420.98C-108.8 1505.71 -67.3417 1589.61 -15.9559 1666H360.932H1079.65C1134.25 1650.65 1183.58 1613.17 1225.06 1572.77C1280.57 1518.71 1330.13 1456.17 1397.93 1418.64C1425.23 1403.53 1459.05 1392.97 1487.12 1406.62C1524.81 1424.96 1531.86 1477.23 1519.57 1517.3C1507.27 1557.38 1481.39 1592.38 1470.35 1632.81C1467.39 1643.72 1465.59 1654.83 1464.8 1666H1666V893.476C1609.4 933.093 1567.33 992.328 1532.75 1052.92C1492.08 1124.17 1458.65 1200.19 1407.81 1264.57C1309.78 1388.71 1156.73 1457.11 1003.48 1496.22C662.287 1583.28 271.138 1535.1 7.31189 1301.88C-60.1545 1242.25 -120.465 1170.42 -203.226 1134.96C-291.902 1096.96 -394.25 1106.68 -486.887 1133.62Z" fill="url(#paint7_linear_102_986)"/>
<path d="M1532.74 1052.92C1492.07 1124.16 1458.64 1200.19 1407.8 1264.57C1309.78 1388.71 1156.72 1457.12 1003.47 1496.22C662.276 1583.28 271.128 1535.1 7.30151 1301.88C-60.165 1242.25 -120.465 1170.42 -203.237 1134.96C-291.913 1096.96 -394.26 1106.68 -486.898 1133.62C-579.535 1160.56 -666.743 1203.67 -758.852 1232.37C-926.898 1284.74 -1113.6 1285.92 -1277.14 1223.2V771.118C-1261.23 810.798 -1242.96 849.05 -1216.96 882.907C-1142.33 980.094 -1016.44 1023.86 -894.809 1038.7C-761.738 1054.94 -625.222 1042.41 -497.332 1002.21C-421.344 978.326 -348.283 944.81 -270.599 927.157C-192.926 909.515 -107.197 909.329 -38.3138 949.34C27.3739 987.499 68.3046 1055.84 117.188 1113.99C264.21 1288.88 505.916 1378.84 731.501 1342.64C957.095 1306.42 1158.5 1145.34 1243.39 933.218C1267.21 873.704 1284.57 807.437 1333.04 765.472C1360.94 741.315 1396.73 727.85 1432.93 720.632C1510 705.265 1588.37 716.351 1666 732.711V893.476C1609.4 933.093 1567.33 992.328 1532.74 1052.92Z" fill="url(#paint8_linear_102_986)"/>
<path d="M1397.93 1418.64C1425.25 1403.53 1459.05 1392.97 1487.12 1406.62C1524.81 1424.96 1531.88 1477.23 1519.57 1517.3C1507.26 1557.37 1481.39 1592.38 1470.35 1632.81C1467.38 1643.72 1465.58 1654.82 1464.8 1666H1079.65C1134.25 1650.65 1183.58 1613.17 1225.06 1572.77C1280.57 1518.71 1330.13 1456.17 1397.93 1418.64Z" fill="url(#paint9_linear_102_986)"/>
</g>
<defs>
<linearGradient id="paint0_linear_102_986" x1="120.71" y1="1343.88" x2="627.979" y2="-240.375" gradientUnits="userSpaceOnUse">
<stop stop-color="#0C831F"/>
<stop offset="1" stop-color="#FFF621"/>
</linearGradient>
<linearGradient id="paint1_linear_102_986" x1="559.355" y1="1029.43" x2="1185.55" y2="-55.1717" gradientUnits="userSpaceOnUse">
<stop stop-color="#0C831F"/>
<stop offset="1" stop-color="#FCEE21"/>
</linearGradient>
<linearGradient id="paint2_linear_102_986" x1="707.862" y1="880.304" x2="1328.57" y2="-194.793" gradientUnits="userSpaceOnUse">
<stop stop-color="#0C831F"/>
<stop offset="1" stop-color="#FCEE21"/>
</linearGradient>
<linearGradient id="paint3_linear_102_986" x1="-431.764" y1="445.962" x2="-94.9032" y2="-137.499" gradientUnits="userSpaceOnUse">
<stop stop-color="#22B573"/>
<stop offset="1" stop-color="#FCEE21"/>
</linearGradient>
<linearGradient id="paint4_linear_102_986" x1="-615.56" y1="727.673" x2="-67.9106" y2="-220.884" gradientUnits="userSpaceOnUse">
<stop stop-color="#22B573"/>
<stop offset="1" stop-color="#FCEE21"/>
</linearGradient>
<linearGradient id="paint5_linear_102_986" x1="-740.873" y1="882.224" x2="267.205" y2="-347.905" gradientUnits="userSpaceOnUse">
<stop stop-color="#22B573"/>
<stop offset="1" stop-color="#FCEE21"/>
</linearGradient>
<linearGradient id="paint6_linear_102_986" x1="-394.56" y1="1386.54" x2="446.957" y2="-71.0113" gradientUnits="userSpaceOnUse">
<stop stop-color="#0C831F"/>
<stop offset="1" stop-color="#FCEE21"/>
</linearGradient>
<linearGradient id="paint7_linear_102_986" x1="-178.191" y1="2090.01" x2="800.971" y2="394.051" gradientUnits="userSpaceOnUse">
<stop stop-color="#0C831F"/>
<stop offset="0.796875" stop-color="#FCEE21"/>
</linearGradient>
<linearGradient id="paint8_linear_102_986" x1="-342.719" y1="1762.68" x2="605.45" y2="120.401" gradientUnits="userSpaceOnUse">
<stop stop-color="#0C831F"/>
<stop offset="0.895833" stop-color="#FCEE21"/>
</linearGradient>
<linearGradient id="paint9_linear_102_986" x1="1224.08" y1="1749.39" x2="1438.34" y2="1378.29" gradientUnits="userSpaceOnUse">
<stop stop-color="#0C831F"/>
<stop offset="1" stop-color="#FCEE21"/>
</linearGradient>
<clipPath id="clip0_102_986">
<rect width="1666" height="1666" fill="white"/>
</clipPath>
</defs>
</svg>
