<svg width="19" height="19" viewBox="0 0 19 19" fill="none" xmlns="http://www.w3.org/2000/svg">
<path d="M7.11435 6.6669C7.1276 6.2062 6.98674 5.85322 6.69176 5.60795C6.40009 5.36269 5.98082 5.24006 5.43395 5.24006C5.04948 5.24006 4.70975 5.29806 4.41477 5.41406C4.12311 5.52675 3.88778 5.68419 3.70881 5.88636C3.52983 6.08523 3.4188 6.31226 3.37571 6.56747C3.33925 6.77628 3.35748 6.95857 3.4304 7.11435C3.50331 7.27012 3.61435 7.4027 3.76349 7.51207C3.91596 7.62145 4.0883 7.71259 4.28054 7.78551C4.47609 7.85843 4.67495 7.91974 4.87713 7.96946L5.7919 8.2081C6.15649 8.29758 6.5045 8.41856 6.83594 8.57102C7.16738 8.72017 7.45407 8.91241 7.69602 9.14773C7.94129 9.37973 8.12027 9.6598 8.23295 9.98793C8.34564 10.3161 8.36387 10.7005 8.28764 11.1413C8.18821 11.7379 7.94792 12.2633 7.56676 12.7173C7.18892 13.1681 6.69176 13.5211 6.07528 13.7763C5.46212 14.0282 4.74787 14.1541 3.93253 14.1541C3.1437 14.1541 2.47751 14.0315 1.93395 13.7862C1.39039 13.5376 0.992661 13.178 0.740767 12.7074C0.492188 12.2367 0.412642 11.665 0.502131 10.9922H2.31676C2.2803 11.3468 2.3383 11.6418 2.49077 11.8771C2.64654 12.1125 2.87027 12.2881 3.16193 12.4041C3.4536 12.5201 3.79167 12.5781 4.17614 12.5781C4.57718 12.5781 4.9401 12.5185 5.26491 12.3991C5.58973 12.2765 5.85488 12.1075 6.06037 11.892C6.26918 11.6733 6.39678 11.4181 6.44318 11.1264C6.48958 10.8646 6.45147 10.6458 6.32884 10.4702C6.2062 10.2945 6.01563 10.1487 5.7571 10.0327C5.50189 9.91335 5.19697 9.80729 4.84233 9.71449L3.73864 9.41619C2.93987 9.19744 2.33333 8.86932 1.91903 8.43182C1.50805 7.99432 1.36222 7.41098 1.48153 6.68182C1.58097 6.0786 1.8312 5.55327 2.23224 5.10582C2.63329 4.65507 3.13542 4.3054 3.73864 4.05682C4.34186 3.80492 5.00142 3.67898 5.71733 3.67898C6.43987 3.67898 7.05137 3.80492 7.55185 4.05682C8.05563 4.30871 8.42353 4.66004 8.65554 5.1108C8.89086 5.55824 8.96875 6.07694 8.8892 6.6669H7.11435Z" fill="#46B756"/>
<path d="M10.3523 5.36435L10.6108 3.81818H18.7344L18.4759 5.36435H15.3288L13.897 14H12.0675L13.4993 5.36435H10.3523Z" fill="#DF8600"/>
</svg>
