<svg width="56" height="34" viewBox="0 0 56 34" fill="none" xmlns="http://www.w3.org/2000/svg">
<path d="M7.11435 6.6669C7.1276 6.2062 6.98674 5.85322 6.69176 5.60795C6.40009 5.36269 5.98082 5.24006 5.43395 5.24006C5.04948 5.24006 4.70975 5.29806 4.41477 5.41406C4.12311 5.52675 3.88778 5.68419 3.70881 5.88636C3.52983 6.08523 3.4188 6.31226 3.37571 6.56747C3.33925 6.77628 3.35748 6.95857 3.4304 7.11435C3.50331 7.27012 3.61435 7.4027 3.76349 7.51207C3.91596 7.62145 4.0883 7.71259 4.28054 7.78551C4.47609 7.85843 4.67495 7.91974 4.87713 7.96946L5.7919 8.2081C6.15649 8.29758 6.5045 8.41856 6.83594 8.57102C7.16738 8.72017 7.45407 8.91241 7.69602 9.14773C7.94129 9.37973 8.12027 9.6598 8.23295 9.98793C8.34564 10.3161 8.36387 10.7005 8.28764 11.1413C8.18821 11.7379 7.94792 12.2633 7.56676 12.7173C7.18892 13.1681 6.69176 13.5211 6.07528 13.7763C5.46212 14.0282 4.74787 14.1541 3.93253 14.1541C3.1437 14.1541 2.47751 14.0315 1.93395 13.7862C1.39039 13.5376 0.992661 13.178 0.740767 12.7074C0.492188 12.2367 0.412642 11.665 0.502131 10.9922H2.31676C2.2803 11.3468 2.3383 11.6418 2.49077 11.8771C2.64654 12.1125 2.87027 12.2881 3.16193 12.4041C3.4536 12.5201 3.79167 12.5781 4.17614 12.5781C4.57718 12.5781 4.9401 12.5185 5.26491 12.3991C5.58973 12.2765 5.85488 12.1075 6.06037 11.892C6.26918 11.6733 6.39678 11.4181 6.44318 11.1264C6.48958 10.8646 6.45147 10.6458 6.32884 10.4702C6.2062 10.2945 6.01563 10.1487 5.7571 10.0327C5.50189 9.91335 5.19697 9.80729 4.84233 9.71449L3.73864 9.41619C2.93987 9.19744 2.33333 8.86932 1.91903 8.43182C1.50805 7.99432 1.36222 7.41098 1.48153 6.68182C1.58097 6.0786 1.8312 5.55327 2.23224 5.10582C2.63329 4.65507 3.13542 4.3054 3.73864 4.05682C4.34186 3.80492 5.00142 3.67898 5.71733 3.67898C6.43987 3.67898 7.05137 3.80492 7.55185 4.05682C8.05563 4.30871 8.42353 4.66004 8.65554 5.1108C8.89086 5.55824 8.96875 6.07694 8.8892 6.6669H7.11435ZM11.15 3.81818H13.4071L15.2118 11.196H15.3311L19.5719 3.81818H21.829L20.1387 14H18.3688L19.5321 7.00497H19.4426L15.4654 13.9702H14.1479L12.4973 6.99006H12.4029L11.2296 14H9.45969L11.15 3.81818ZM22.1472 14L23.8375 3.81818H27.6557C28.4379 3.81818 29.0726 3.95407 29.5598 4.22585C30.0471 4.49763 30.3868 4.87879 30.579 5.36932C30.7712 5.85653 30.8127 6.42495 30.7033 7.07457C30.5972 7.72419 30.3652 8.2893 30.0073 8.76989C29.6526 9.24716 29.1837 9.61671 28.6003 9.87855C28.0203 10.1404 27.3392 10.2713 26.557 10.2713H23.8375L24.0961 8.74006H26.5719C27.0293 8.74006 27.4138 8.67708 27.7253 8.55114C28.0369 8.42187 28.2821 8.23461 28.4611 7.98935C28.6434 7.74077 28.7644 7.43584 28.824 7.07457C28.8804 6.7133 28.8588 6.40507 28.7594 6.14986C28.6633 5.89134 28.4793 5.69579 28.2076 5.56321C27.9391 5.42732 27.5762 5.35938 27.1188 5.35938H25.4284L23.9917 14H22.1472ZM28.1728 9.38636L29.9277 14H27.8695L26.1593 9.38636H28.1728ZM32.6149 14H30.6461L35.921 3.81818H38.198L40.0971 14H38.1284L36.7612 5.90625H36.6816L32.6149 14ZM33.3407 10.0078H38.71L38.4615 11.4893H33.0922L33.3407 10.0078ZM41.1921 5.36435L41.4506 3.81818H49.5742L49.3157 5.36435H46.1687L44.7369 14H42.9073L44.3391 5.36435H41.1921Z" fill="#46B756"/>
<path d="M16.3523 17.3643L16.6108 15.8182H24.7344L24.4759 17.3643H21.3288L19.897 26H18.0675L19.4993 17.3643H16.3523ZM24.6101 26L26.3004 15.8182H32.9226L32.6641 17.3643H27.8864L27.429 20.1286H31.8636L31.6051 21.6747H27.1705L26.7131 24.4538H31.5305L31.272 26H24.6101ZM34.4215 26H32.4528L37.7276 15.8182H40.0046L41.9038 26H39.935L38.5678 17.9062H38.4883L34.4215 26ZM35.1474 22.0078H40.5167L40.2681 23.4893H34.8988L35.1474 22.0078ZM44.9352 15.8182H47.1923L48.997 23.196H49.1163L53.3571 15.8182H55.6142L53.9238 26H52.1539L53.3173 19.005H53.2278L49.2505 25.9702H47.9331L46.2825 18.9901H46.188L45.0147 26H43.2449L44.9352 15.8182Z" fill="#DF8600"/>
</svg>
